<?xml version="1.0" encoding="UTF-8"?>
<svg xmlns="http://www.w3.org/2000/svg" xmlns:xlink="http://www.w3.org/1999/xlink" width="375pt" height="374.999991pt" viewBox="0 0 375 374.999991" version="1.2">
<defs>
<clipPath id="clip1">
  <path d="M 88.222656 58 L 286.972656 58 L 286.972656 257.742188 L 88.222656 257.742188 Z M 88.222656 58 "/>
</clipPath>
<clipPath id="clip2">
  <path d="M 173 30.492188 L 202 30.492188 L 202 69 L 173 69 Z M 173 30.492188 "/>
</clipPath>
<clipPath id="clip3">
  <path d="M 163 30.492188 L 212 30.492188 L 212 40 L 163 40 Z M 163 30.492188 "/>
</clipPath>
</defs>
<g id="surface1">
<g clip-path="url(#clip1)" clip-rule="nonzero">
<path style=" stroke:none;fill-rule:nonzero;fill:rgb(0%,72.938538%,100%);fill-opacity:1;" d="M 187.597656 257.738281 C 132.796875 257.738281 88.222656 213.140625 88.222656 158.316406 C 88.222656 103.496094 132.796875 58.898438 187.597656 58.898438 C 242.394531 58.898438 286.972656 103.496094 286.972656 158.316406 C 286.972656 213.140625 242.394531 257.738281 187.597656 257.738281 Z M 187.597656 68.367188 C 138.023438 68.367188 97.683594 108.722656 97.683594 158.316406 C 97.683594 207.914062 138.023438 248.269531 187.597656 248.269531 C 237.171875 248.269531 277.507812 207.914062 277.507812 158.316406 C 277.507812 108.722656 237.171875 68.367188 187.597656 68.367188 Z M 187.597656 68.367188 "/>
</g>
<g clip-path="url(#clip2)" clip-rule="nonzero">
<path style=" stroke:none;fill-rule:nonzero;fill:rgb(0%,72.938538%,100%);fill-opacity:1;" d="M 197.058594 68.367188 C 194.449219 68.367188 192.328125 66.246094 192.328125 63.632812 L 192.328125 39.960938 L 182.863281 39.960938 L 182.863281 63.632812 C 182.863281 66.246094 180.742188 68.367188 178.132812 68.367188 C 175.519531 68.367188 173.398438 66.246094 173.398438 63.632812 L 173.398438 35.226562 C 173.398438 32.613281 175.519531 30.492188 178.132812 30.492188 L 197.058594 30.492188 C 199.671875 30.492188 201.792969 32.613281 201.792969 35.226562 L 201.792969 63.632812 C 201.792969 66.246094 199.671875 68.367188 197.058594 68.367188 Z M 197.058594 68.367188 "/>
</g>
<g clip-path="url(#clip3)" clip-rule="nonzero">
<path style=" stroke:none;fill-rule:nonzero;fill:rgb(0%,72.938538%,100%);fill-opacity:1;" d="M 206.523438 39.960938 L 168.667969 39.960938 C 166.054688 39.960938 163.933594 37.839844 163.933594 35.226562 C 163.933594 32.613281 166.054688 30.492188 168.667969 30.492188 L 206.523438 30.492188 C 209.136719 30.492188 211.257812 32.613281 211.257812 35.226562 C 211.257812 37.839844 209.136719 39.960938 206.523438 39.960938 Z M 206.523438 39.960938 "/>
</g>
<path style=" stroke:none;fill-rule:nonzero;fill:rgb(0%,72.938538%,100%);fill-opacity:1;" d="M 215.988281 191.457031 C 214.777344 191.457031 213.566406 190.992188 212.640625 190.074219 L 184.246094 161.671875 C 183.367188 160.78125 182.863281 159.578125 182.863281 158.316406 L 182.863281 92.039062 C 182.863281 89.425781 184.984375 87.304688 187.597656 87.304688 C 190.207031 87.304688 192.328125 89.425781 192.328125 92.039062 L 192.328125 156.359375 L 219.339844 183.382812 C 221.183594 185.226562 221.183594 188.230469 219.339844 190.074219 C 218.410156 190.992188 217.199219 191.457031 215.988281 191.457031 Z M 215.988281 191.457031 "/>
<path style=" stroke:none;fill-rule:nonzero;fill:rgb(0%,72.938538%,100%);fill-opacity:1;" d="M 244.382812 87.304688 C 243.386719 87.304688 242.394531 86.992188 241.542969 86.359375 C 239.449219 84.785156 239.023438 81.824219 240.597656 79.730469 L 254.792969 60.792969 C 256.363281 58.691406 259.324219 58.285156 261.417969 59.847656 C 263.507812 61.417969 263.933594 64.382812 262.363281 66.472656 L 248.167969 85.410156 C 247.238281 86.652344 245.820312 87.304688 244.382812 87.304688 Z M 244.382812 87.304688 "/>
<path style="fill:none;stroke-width:5.879167;stroke-linecap:butt;stroke-linejoin:miter;stroke:rgb(0%,72.938538%,100%);stroke-opacity:1;stroke-miterlimit:4;" d="M 45.098958 127.240265 C 41.171874 131.167349 36.072916 133.136099 29.796874 133.136099 C 23.52604 133.136099 18.406248 131.167349 14.442706 127.240265 C 10.479164 123.313182 8.494789 118.172556 8.494789 111.828806 L 8.494789 75.334012 L 15.994789 75.334012 L 15.994789 111.026723 C 15.994789 115.417348 17.291664 118.979848 19.895831 121.709015 C 22.49479 124.417348 25.796873 125.776724 29.796874 125.776724 C 33.874999 125.776724 37.197916 124.417348 39.760416 121.709015 C 42.343749 118.979848 43.635416 115.417348 43.635416 111.026723 L 43.635416 75.334012 L 50.994792 75.334012 L 50.994792 111.828806 C 50.994792 118.172556 49.026042 123.313182 45.098958 127.240265 Z M 112.203129 133.136099 C 100.031253 133.136099 89.713544 128.901724 81.244794 120.432973 C 72.796876 111.969431 68.572918 101.65693 68.572918 89.50068 C 68.572918 77.344429 72.796876 67.031928 81.244794 58.568386 C 89.713544 50.099635 100.031253 45.870468 112.203129 45.870468 C 117.718754 45.870468 123.255213 47.02151 128.807297 49.328802 C 134.35938 51.630885 139.098964 54.750677 143.026048 58.677761 L 137.468756 64.130886 C 130.588547 57.099636 122.166671 53.589219 112.203129 53.589219 C 102.151045 53.589219 93.630211 57.063177 86.640627 64.016303 C 79.651044 70.953803 76.156252 79.448596 76.156252 89.50068 C 76.156252 99.552764 79.651044 108.057972 86.640627 115.011098 C 93.630211 121.948598 102.151045 125.417349 112.203129 125.417349 C 122.166671 125.417349 130.588547 121.91214 137.468756 114.901723 L 143.026048 120.323598 C 139.098964 124.250682 134.35938 127.370474 128.807297 129.677766 C 123.255213 131.979849 117.718754 133.136099 112.203129 133.136099 Z M 158.322924 132.000682 L 158.322924 47.000677 L 165.682299 47.000677 L 165.682299 132.000682 Z M 212.026052 133.136099 C 203.947927 133.136099 197.015635 130.266307 191.223968 124.531932 C 185.447926 118.776723 182.562509 111.818389 182.562509 103.667347 C 182.562509 95.516305 185.447926 88.568388 191.223968 82.834012 C 197.015635 77.078804 203.947927 74.198595 212.026052 74.198595 C 220.197928 74.198595 227.156262 77.078804 232.890637 82.834012 C 238.625012 88.568388 241.494804 95.516305 241.494804 103.667347 C 241.494804 111.818389 238.625012 118.776723 232.890637 124.531932 C 227.156262 130.266307 220.197928 133.136099 212.026052 133.136099 Z M 196.453135 119.328806 C 200.729177 123.625682 205.921885 125.776724 212.026052 125.776724 C 218.151053 125.776724 223.364595 123.625682 227.66147 119.328806 C 231.979179 115.011098 234.135429 109.792348 234.135429 103.667347 C 234.135429 97.542347 231.979179 92.334013 227.66147 88.037138 C 223.364595 83.719429 218.151053 81.557971 212.026052 81.557971 C 205.921885 81.557971 200.729177 83.719429 196.453135 88.037138 C 192.187509 92.334013 190.057301 97.542347 190.057301 103.667347 C 190.057301 109.792348 192.187509 115.011098 196.453135 119.328806 Z M 283.76564 133.136099 C 275.687515 133.136099 268.750014 130.266307 262.958347 124.531932 C 257.187514 118.776723 254.296888 111.818389 254.296888 103.667347 C 254.296888 95.516305 257.187514 88.568388 262.958347 82.834012 C 268.750014 77.078804 275.687515 74.198595 283.76564 74.198595 C 289.593766 74.198595 294.906266 75.729845 299.703141 78.792346 C 304.500017 81.854846 308.104184 85.912138 310.52085 90.96943 L 303.604183 94.151722 C 301.796891 90.370471 299.130225 87.323596 295.609391 85.021513 C 292.104183 82.714221 288.156266 81.557971 283.76564 81.557971 C 277.567723 81.557971 272.354181 83.698596 268.130223 87.979846 C 263.906264 92.240263 261.796889 97.46943 261.796889 103.667347 C 261.796889 109.865264 263.906264 115.104848 268.130223 119.38089 C 272.354181 123.646515 277.567723 125.776724 283.76564 125.776724 C 288.156266 125.776724 292.104183 124.620474 295.609391 122.31839 C 299.130225 120.011098 301.796891 116.964223 303.604183 113.182973 L 310.52085 116.365265 C 308.104184 121.422557 304.500017 125.479849 299.703141 128.542349 C 294.906266 131.604849 289.593766 133.136099 283.76564 133.136099 Z M 369.578146 132.000682 L 359.255229 132.000682 L 332.500018 102.422555 L 332.500018 132.000682 L 325.140643 132.000682 L 325.140643 47.000677 L 332.500018 47.000677 L 332.500018 98.464222 L 357.098978 75.334012 L 367.197937 75.334012 L 340.333352 100.485055 Z M 369.578146 132.000682 " transform="matrix(0.75,0,0,0.75,48.656253,248.913557)"/>
</g>
</svg>
